<svg xmlns="http://www.w3.org/2000/svg"  viewBox="0 0 48 48" width="108px" height="108px"><path fill="#455a64" d="M25.8 5H32.1V7H25.8z" transform="rotate(-71.549 29 6)"/><path fill="#455a64" d="M18 2.8H20V9.1H18z" transform="rotate(-18.432 19.002 6)"/><path fill="#455a64" d="M35,5.5h-2C33,4.7,32.3,4,31.5,4h-15C15.7,4,15,4.7,15,5.5h-2C13,3.6,14.6,2,16.5,2h15 C33.4,2,35,3.6,35,5.5z"/><path fill="#607d8b" d="M14.3 46l4.2-7.5-1.7-1L12 46H14.3zM33.7 46l-4.2-7.5 1.7-1L36 46H33.7z"/><path fill="#cfd8dc" d="M38,39V13.5C38,9.9,35.1,7,31.5,7h-15C12.9,7,10,9.9,10,13.5V39c0,0,0,2,2,2s22,0,24,0S38,39,38,39z"/><path fill="#ff3d00" d="M10,26v13c0,0,0,2,2,2s22,0,24,0s2-2,2-2V26H10z"/><path fill="#dd2c00" d="M24,27c-2.2,0-4,1.8-4,4s1.8,4,4,4s4-1.8,4-4S26.2,27,24,27z"/><path fill="#f9fbe7" d="M26,31c0,1.1-0.9,2-2,2s-2-0.9-2-2s0.9-2,2-2S26,29.9,26,31z"/><path fill="#90a4ae" d="M30,10c0,0.6-0.4,1-1,1H19c-0.6,0-1-0.4-1-1c0-0.6,0.4-1,1-1h10C29.6,9,30,9.4,30,10z"/><path fill="#911f05" d="M18,36h12v3H18V36z"/><path fill="#455a64" d="M17 13h-3.5c-.8 0-1.5.7-1.5 1.5v8c0 .8.7 1.5 1.5 1.5H17V13zM19 13h10v11H19V13zM34.5 13H31v11h3.5c.8 0 1.5-.7 1.5-1.5v-8C36 13.7 35.3 13 34.5 13z"/></svg>